<svg width="35" height="35" viewBox="0 0 35 35" fill="none" xmlns="http://www.w3.org/2000/svg">
<path d="M8.02084 32.0833C7.43751 32.0833 6.92709 31.8645 6.48959 31.427C6.05209 30.9895 5.83334 30.4791 5.83334 29.8958V5.10413C5.83334 4.52079 6.05209 4.01038 6.48959 3.57288C6.92709 3.13538 7.43751 2.91663 8.02084 2.91663H26.9792C27.5625 2.91663 28.0729 3.13538 28.5104 3.57288C28.9479 4.01038 29.1667 4.52079 29.1667 5.10413V29.8958C29.1667 30.4791 28.9479 30.9895 28.5104 31.427C28.0729 31.8645 27.5625 32.0833 26.9792 32.0833H8.02084ZM17.7188 14.802L21.2552 12.7604L24.7917 14.802V5.10413H17.7188V14.802Z" fill="#E1BFD3"/>
</svg>
