<svg width="35" height="35" viewBox="0 0 35 35" fill="none" xmlns="http://www.w3.org/2000/svg">
<path d="M14.2187 30.625V25.8854H2.91666V23.6979H14.2187C14.8203 23.6979 15.3353 23.9121 15.7637 24.3405C16.192 24.7689 16.4062 25.2839 16.4062 25.8854V30.625H14.2187ZM18.5937 30.625V25.8854C18.5937 25.2839 18.8079 24.7689 19.2363 24.3405C19.6647 23.9121 20.1797 23.6979 20.7812 23.6979H32.0833V25.8854H20.7812V30.625H18.5937ZM8.38541 21.5104C7.27141 21.5104 6.3245 21.1205 5.54468 20.3407C4.76489 19.5609 4.37499 18.614 4.37499 17.5V10.9375H30.625V17.5C30.625 18.614 30.2351 19.5609 29.4553 20.3407C28.6755 21.1205 27.7286 21.5104 26.6146 21.5104H8.38541ZM4.37499 9.47917V7.29167H13.4896V5.46875C13.4896 5.15885 13.5944 4.89909 13.804 4.68945C14.0137 4.47982 14.2734 4.375 14.5833 4.375H20.4167C20.7266 4.375 20.9863 4.47982 21.196 4.68945C21.4056 4.89909 21.5104 5.15885 21.5104 5.46875V7.29167H30.625V9.47917H4.37499Z" fill="#7AE1DB"/>
</svg>
