<svg width="35" height="35" viewBox="0 0 35 35" fill="none" xmlns="http://www.w3.org/2000/svg">
<path d="M20.0521 31.9375L18.5208 30.4063L23.6979 25.2292L9.77083 11.3021L4.59375 16.4792L3.0625 14.9479L5.10417 12.8333L3.0625 10.7917L6.16146 7.69271L4.63021 6.16146L6.16146 4.63021L7.72917 6.125L10.7917 3.0625L12.8333 5.10417L14.9479 3.0625L16.4792 4.59375L11.3021 9.77083L25.2292 23.6979L30.4063 18.5208L31.9375 20.0521L29.8958 22.1667L31.9375 24.2083L28.8021 27.3438L30.3333 28.875L28.8021 30.4063L27.2708 28.875L24.2083 31.9375L22.1667 29.8958L20.0521 31.9375Z" fill="#86A8E7"/>
</svg>
