<svg width="35" height="35" viewBox="0 0 35 35" fill="none" xmlns="http://www.w3.org/2000/svg">
<path d="M17.5001 2.91667C11.8563 2.91667 7.29175 7.48125 7.29175 13.125C7.29175 20.7812 17.5001 32.0833 17.5001 32.0833C17.5001 32.0833 27.7084 20.7812 27.7084 13.125C27.7084 7.48125 23.1438 2.91667 17.5001 2.91667ZM17.5001 16.7708C16.5331 16.7708 15.6058 16.3867 14.9221 15.703C14.2384 15.0193 13.8542 14.0919 13.8542 13.125C13.8542 12.1581 14.2384 11.2307 14.9221 10.547C15.6058 9.86328 16.5331 9.47917 17.5001 9.47917C18.467 9.47917 19.3943 9.86328 20.0781 10.547C20.7618 11.2307 21.1459 12.1581 21.1459 13.125C21.1459 14.0919 20.7618 15.0193 20.0781 15.703C19.3943 16.3867 18.467 16.7708 17.5001 16.7708Z" fill="#E1BFD3"/>
</svg>
