<svg width="35" height="35" viewBox="0 0 35 35" fill="none" xmlns="http://www.w3.org/2000/svg">
<path d="M9.47925 33.5417C8.89591 33.5417 8.3855 33.3229 7.948 32.8854C7.5105 32.4479 7.29175 31.9375 7.29175 31.3542V3.64583C7.29175 3.0625 7.5105 2.55208 7.948 2.11458C8.3855 1.67708 8.89591 1.45833 9.47925 1.45833H25.5209C26.1042 1.45833 26.6147 1.67708 27.0522 2.11458C27.4897 2.55208 27.7084 3.0625 27.7084 3.64583V31.3542C27.7084 31.9375 27.4897 32.4479 27.0522 32.8854C26.6147 33.3229 26.1042 33.5417 25.5209 33.5417H9.47925ZM17.5001 30.8073C17.8161 30.8073 18.0773 30.704 18.2839 30.4974C18.4905 30.2908 18.5938 30.0295 18.5938 29.7135C18.5938 29.3976 18.4905 29.1363 18.2839 28.9297C18.0773 28.7231 17.8161 28.6198 17.5001 28.6198C17.1841 28.6198 16.9228 28.7231 16.7162 28.9297C16.5096 29.1363 16.4063 29.3976 16.4063 29.7135C16.4063 30.0295 16.5096 30.2908 16.7162 30.4974C16.9228 30.704 17.1841 30.8073 17.5001 30.8073ZM9.47925 25.8854H25.5209V6.92708H9.47925V25.8854Z" fill="#86A8E7"/>
</svg>
